<?xml version="1.0" standalone="no"?>
<!DOCTYPE svg PUBLIC "-//W3C//DTD SVG 20010904//EN"
 "http://www.w3.org/TR/2001/REC-SVG-20010904/DTD/svg10.dtd">
<svg version="1.0" xmlns="http://www.w3.org/2000/svg"
 width="800.000000pt" height="800.000000pt" viewBox="0 0 800.000000 800.000000"
 preserveAspectRatio="xMidYMid meet">
<metadata>
Created by potrace 1.11, written by Peter Selinger 2001-2013
</metadata>
<g transform="translate(0.000000,800.000000) scale(0.100000,-0.100000)"
fill="#000000" stroke="none">
<path d="M3875 6524 c-22 -2 -92 -9 -155 -14 -124 -12 -151 -16 -340 -63 -294
-71 -532 -191 -698 -351 -54 -51 -182 -207 -182 -221 0 -5 -10 -22 -23 -39
-64 -89 -152 -305 -191 -471 -9 -39 -21 -86 -26 -105 -12 -47 -33 -307 -25
-319 13 -23 35 4 45 57 6 32 15 73 20 92 5 19 17 67 26 105 18 73 37 115 54
115 6 0 10 -61 10 -155 0 -178 -10 -165 107 -141 284 59 765 86 1513 86 723
-1 1253 -32 1520 -89 92 -20 85 -33 82 156 -4 167 -4 168 16 147 37 -39 38
-43 93 -312 11 -55 16 -62 40 -62 15 0 19 5 15 18 -3 9 -10 76 -16 148 -14
164 -51 331 -101 455 -11 30 -27 70 -35 91 -57 153 -216 374 -352 488 -29 25
-58 50 -65 55 -22 19 -130 82 -212 123 -119 59 -336 129 -505 163 -142 28
-501 53 -615 43z"/>
<path d="M3400 4854 c-25 -2 -155 -8 -290 -14 -234 -10 -356 -20 -500 -40
-145 -20 -276 -43 -300 -53 -39 -15 -62 -24 -98 -37 -23 -9 -34 -21 -40 -44
-6 -23 -16 -33 -41 -40 l-32 -9 6 -66 c4 -36 11 -84 16 -106 13 -61 10 -229
-5 -325 -20 -120 -25 -136 -62 -217 -36 -76 -40 -93 -24 -109 7 -7 -12 -33
-61 -80 -39 -38 -95 -93 -124 -121 -143 -142 -238 -367 -220 -523 12 -106 76
-243 158 -337 14 -15 67 -77 120 -138 147 -171 177 -193 177 -130 0 13 4 26 9
29 5 3 23 30 39 59 67 117 204 208 378 253 182 46 242 69 347 137 43 27 80 47
83 44 3 -2 -22 -31 -56 -63 -91 -88 -191 -138 -342 -170 -38 -7 -89 -23 -113
-34 -24 -11 -47 -20 -51 -20 -20 0 -136 -96 -171 -142 -83 -109 -109 -224 -83
-374 28 -159 63 -228 179 -345 124 -126 310 -249 459 -306 149 -57 195 -64
420 -70 239 -6 300 1 397 49 67 33 134 93 161 144 l19 34 242 0 c181 0 245 -3
253 -12 6 -7 27 -34 46 -60 42 -55 103 -98 183 -130 49 -19 80 -22 260 -26
229 -5 307 4 444 49 221 72 463 241 607 423 68 88 104 226 98 384 -3 86 -7
104 -36 162 -77 150 -210 239 -427 285 -102 22 -216 80 -289 146 -54 49 -95
102 -64 82 7 -4 45 -29 83 -54 71 -46 162 -89 188 -89 8 0 28 -7 43 -15 16 -8
37 -15 46 -15 9 0 43 -7 75 -16 32 -9 69 -18 82 -21 35 -8 143 -74 191 -116
55 -48 106 -115 126 -168 18 -47 32 -69 43 -69 8 0 177 188 235 260 170 212
198 277 193 450 -3 83 -8 106 -40 184 -51 124 -93 181 -239 325 -117 115 -145
151 -118 151 16 0 11 27 -14 72 -37 68 -63 154 -82 273 -16 99 -16 123 -4 250
7 77 13 160 14 185 1 42 -1 45 -26 48 -21 3 -30 10 -36 33 -14 57 -136 99
-370 130 -182 24 -230 29 -462 44 -175 12 -432 18 -900 20 -360 1 -675 1 -700
-1z m245 -108 c18 -13 18 -14 0 -42 -25 -38 -83 -93 -175 -163 -69 -52 -197
-142 -237 -166 -9 -5 -41 -25 -69 -42 -29 -18 -56 -33 -60 -33 -3 0 -34 -14
-68 -31 -95 -49 -210 -74 -241 -51 -22 15 -84 112 -115 178 -61 130 -74 220
-42 284 16 34 20 35 102 48 118 18 340 29 636 30 199 2 254 -1 269 -12z m1374
4 c147 -9 255 -21 317 -35 71 -16 55 -216 -28 -352 -13 -21 -30 -51 -38 -67
-28 -54 -65 -86 -102 -86 -72 0 -229 62 -345 137 -29 18 -54 33 -57 33 -3 0
-42 25 -88 57 -247 168 -372 294 -315 316 22 10 489 7 656 -3z m-924 -205 c44
-7 98 -21 120 -31 67 -28 142 -83 165 -120 24 -41 21 -41 -43 5 -111 81 -252
112 -418 93 -105 -13 -219 -56 -266 -101 -23 -22 -43 -28 -43 -12 0 16 95 95
144 119 42 22 191 59 241 61 11 0 56 -6 100 -14z m-1585 -316 c0 -6 -6 -25
-14 -42 -31 -69 -39 -115 -38 -223 0 -97 4 -124 28 -191 15 -43 38 -95 51
-116 32 -51 43 -81 34 -96 -13 -21 -36 20 -109 189 -22 52 -42 223 -35 300 8
88 46 190 70 190 7 0 13 -5 13 -11z m3026 -21 c44 -85 55 -226 29 -362 -21
-108 -99 -286 -125 -286 -17 0 -11 36 13 71 97 144 124 371 63 533 -31 80 -30
76 -11 76 8 0 22 -15 31 -32z m-2166 -93 c0 -11 -38 -42 -108 -88 -138 -91
-245 -146 -357 -184 -64 -22 -209 -48 -223 -39 -18 11 -56 -37 -83 -106 -6
-16 -14 -28 -19 -28 -8 0 -51 94 -70 155 -8 23 -13 86 -12 153 2 163 13 172
63 50 19 -45 48 -97 66 -115 30 -33 33 -34 85 -28 70 9 216 44 250 61 15 8 34
14 42 14 19 0 196 77 286 125 64 34 80 40 80 30z m1362 -39 c161 -77 205 -96
295 -126 154 -53 306 -79 334 -57 26 20 71 98 94 165 17 48 25 59 33 49 19
-22 26 -168 12 -243 -14 -75 -66 -198 -80 -189 -5 3 -19 27 -30 53 -27 61 -49
84 -72 76 -27 -8 -153 13 -218 38 -89 32 -262 118 -301 149 -20 16 -40 29 -43
29 -9 0 -113 77 -121 90 -10 16 -3 13 97 -34z m-642 -300 c19 -6 35 -16 35
-21 -4 -76 -19 -211 -25 -215 -4 -3 -52 -3 -106 0 l-99 5 -8 109 c-5 59 -6
110 -3 113 3 3 31 11 63 18 59 13 80 11 143 -9z m-284 -68 c8 -12 19 -66 30
-145 6 -40 5 -42 -22 -48 -16 -4 -50 -16 -75 -27 -26 -11 -52 -18 -57 -14 -6
4 -10 43 -9 93 l2 88 50 32 c54 36 70 40 81 21z m467 -15 c23 -16 47 -34 53
-42 10 -13 8 -170 -2 -180 -2 -2 -27 6 -55 18 -28 11 -60 21 -69 21 -31 0 -41
23 -31 71 34 157 34 157 104 112z m-661 -178 c4 -33 5 -67 2 -75 -7 -21 -136
-102 -146 -92 -4 4 -4 37 0 72 7 61 11 68 57 112 28 27 57 47 65 45 10 -1 17
-21 22 -62z m872 10 c55 -55 56 -56 56 -114 0 -32 -3 -60 -6 -64 -4 -3 -40 17
-81 44 -58 39 -73 54 -67 67 3 9 9 41 12 70 3 33 9 52 17 52 7 0 38 -25 69
-55z m1462 -152 c36 -36 54 -62 54 -78 0 -38 -17 -31 -84 33 -34 32 -70 64
-81 70 -19 11 -19 13 -2 26 27 21 54 9 113 -51z m-3766 45 c0 -7 -16 -24 -36
-37 -19 -14 -53 -45 -74 -69 -38 -43 -70 -52 -70 -19 0 20 42 73 85 107 39 31
95 41 95 18z m1220 -86 l0 -49 -107 -51 c-116 -55 -163 -70 -163 -54 0 5 21
24 48 41 26 17 81 59 122 95 41 35 81 65 88 65 8 1 12 -15 12 -47z m1271 8
c24 -22 68 -57 97 -78 81 -56 108 -80 100 -87 -12 -12 -257 98 -259 116 -1 5
-2 24 -3 42 -4 60 6 61 65 7z m-2387 24 c25 -9 19 -28 -13 -42 -16 -7 -53 -38
-82 -69 -41 -44 -56 -54 -68 -46 -42 26 -2 87 90 138 49 27 51 27 73 19z
m3507 -18 c60 -34 123 -100 116 -121 -14 -35 -37 -27 -93 29 -31 31 -70 64
-87 73 -29 15 -30 16 -12 29 25 18 25 18 76 -10z m-3394 -73 c4 -11 -1 -22
-18 -32 -13 -8 -51 -41 -84 -73 l-59 -58 -25 25 -25 25 34 35 c76 79 162 117
177 78z m3289 -1 c42 -23 124 -99 124 -115 0 -18 -21 -37 -39 -37 -25 1 -164
138 -157 155 7 19 33 18 72 -3z m-3186 -99 c0 -8 -35 -47 -77 -87 -73 -69 -79
-73 -100 -59 -50 33 -36 60 70 139 51 38 61 42 82 32 14 -6 25 -18 25 -25z
m3083 15 c45 -30 127 -110 127 -123 0 -7 -11 -22 -24 -34 l-25 -23 -73 71
c-40 39 -76 71 -80 71 -17 0 -7 30 14 44 28 20 24 20 61 -6z m-2994 -120 c14
-25 14 -27 -20 -54 -18 -16 -53 -48 -77 -71 -23 -24 -45 -43 -48 -43 -11 0
-43 45 -44 60 0 16 76 94 120 124 32 21 51 17 69 -16z m2920 -2 c51 -37 101
-93 101 -111 0 -6 -11 -22 -25 -35 l-25 -24 -53 51 c-28 27 -65 61 -81 75 -28
25 -28 26 -11 52 23 34 38 33 94 -8z m-1360 -399 c6 -8 14 -31 19 -53 6 -31
16 -43 47 -61 21 -12 45 -33 52 -48 20 -37 43 -150 43 -211 0 -56 15 -77 62
-89 40 -10 62 -64 61 -151 -1 -112 -47 -184 -118 -184 -38 0 -62 -23 -76 -74
l-10 -36 -222 0 -222 0 -26 53 c-15 31 -33 53 -45 55 -114 20 -137 51 -138
186 -1 105 9 129 61 151 50 21 62 42 63 107 0 67 25 183 46 216 8 12 22 22 31
22 23 0 63 39 63 61 0 10 5 30 12 44 l11 25 137 0 c102 0 140 -3 149 -13z
m-1099 -447 c12 -8 11 -12 -7 -32 -11 -13 -26 -33 -32 -45 -18 -35 -13 -119 9
-162 13 -26 17 -49 14 -73 -10 -57 16 -101 77 -132 62 -31 108 -33 165 -7 49
22 80 62 93 120 5 23 16 50 24 59 8 9 13 22 11 27 -2 6 9 26 26 45 27 31 30
33 37 15 4 -11 8 -58 8 -105 0 -81 -2 -88 -36 -141 -74 -113 -183 -169 -328
-169 -191 0 -322 95 -367 265 -32 118 -2 216 84 278 59 43 74 49 142 57 30 4
57 8 60 8 3 1 12 -3 20 -8z m2085 -32 c70 -35 111 -82 135 -156 11 -36 11 -55
1 -105 -38 -192 -176 -306 -371 -307 -196 0 -328 92 -370 258 -11 40 -11 61 0
111 7 33 15 61 17 61 12 0 52 -58 53 -76 0 -12 7 -27 15 -34 8 -7 15 -20 15
-29 0 -37 36 -99 74 -126 71 -51 192 -36 245 31 16 21 21 41 21 89 0 43 5 66
15 75 11 9 15 33 15 90 0 73 -2 80 -30 110 -16 18 -30 34 -30 36 0 2 30 4 66
4 54 0 77 -6 129 -32z m-1872 -221 c58 -72 11 -172 -80 -169 -96 3 -126 141
-42 188 34 19 100 8 122 -19z m1617 5 c49 -37 43 -134 -12 -163 -71 -38 -152
13 -152 96 0 80 94 118 164 67z"/>
<path d="M2021 4511 c-16 -32 -39 -87 -51 -122 -23 -67 -24 -63 24 -94 14 -9
14 -19 3 -85 -11 -61 -17 -76 -33 -78 -33 -7 -35 -17 -20 -113 30 -179 42
-193 84 -97 52 115 77 264 68 413 -15 263 -23 281 -75 176z"/>
<path d="M5926 4543 c-3 -16 -11 -78 -16 -139 -15 -153 8 -358 52 -454 46
-102 63 -115 73 -52 4 20 11 48 16 62 5 14 10 56 12 95 2 62 0 70 -18 73 -30
6 -32 11 -40 95 -6 64 -4 77 8 77 8 0 20 7 27 15 10 12 7 31 -14 100 -15 47
-31 85 -36 85 -4 0 -14 16 -20 35 -14 42 -36 46 -44 8z"/>
</g>
</svg>
